<?xml version="1.0" encoding="utf-8"?>
<!-- Generator: Adobe Illustrator 27.5.0, SVG Export Plug-In . SVG Version: 6.00 Build 0)  -->
<svg version="1.1" xmlns="http://www.w3.org/2000/svg" xmlns:xlink="http://www.w3.org/1999/xlink" x="0px" y="0px"
	 viewBox="0 0 500 500" style="enable-background:new 0 0 500 500;" xml:space="preserve">
<g id="BACKGROUND">
	<radialGradient id="SVGID_1_" cx="255.0016" cy="200.0018" r="315.0051" gradientUnits="userSpaceOnUse">
		<stop  offset="0" style="stop-color:#18217D"/>
		<stop  offset="0.7943" style="stop-color:#121A61"/>
		<stop  offset="1" style="stop-color:#11185A"/>
	</radialGradient>
	<rect x="0.002" y="0.002" style="fill:url(#SVGID_1_);" width="500" height="500"/>
</g>
<g id="OBJECTS">
	<g>
		<g>
			<g>
				<g>
					<path style="fill:#FAFAFB;" d="M106.627,99.622v-4.498c0-0.468-0.379-0.847-0.847-0.847H81.397
						c-0.468,0-0.847,0.379-0.847,0.847v5.346v186.255c0,0.468,0.379,0.847,0.847,0.847h112.746c0.468,0,0.847-0.379,0.847-0.847
						V101.317c0-0.468-0.379-0.847-0.847-0.847h-86.669C107.006,100.47,106.627,100.09,106.627,99.622z"/>
					
						<rect x="46.227" y="138.809" transform="matrix(-1.836970e-16 1 -1 -1.836970e-16 331.7908 56.2506)" style="fill:#4343E6;" width="183.086" height="110.424"/>
					<g>
						<g>
							<g>
								<rect x="92.449" y="108.253" style="fill:#E7C957;" width="8.28" height="1.236"/>
								<rect x="92.449" y="158.95" style="fill:#E7C957;" width="8.28" height="1.236"/>
								<rect x="98.347" y="115.532" style="fill:#E7C957;" width="8.28" height="1.236"/>
								<rect x="107.43" y="115.532" style="fill:#00C4FF;" width="8.28" height="1.236"/>
								<rect x="116.513" y="115.532" style="fill:#00C4FF;" width="20.39" height="1.236"/>
								<rect x="92.449" y="111.155" style="fill:#393F76;" width="8.28" height="1.236"/>
								<rect x="107.43" y="118.274" style="fill:#393F76;" width="12.838" height="1.236"/>
								<rect x="120.969" y="118.274" style="fill:#393F76;" width="30.456" height="1.236"/>
								<rect x="152.126" y="118.274" style="fill:#393F76;" width="9.718" height="1.236"/>
								<rect x="162.545" y="118.274" style="fill:#393F76;" width="11.457" height="1.236"/>
								<rect x="114.49" y="121.016" style="fill:#393F76;" width="25.347" height="1.236"/>
								<rect x="140.672" y="121.016" style="fill:#393F76;" width="33.331" height="1.236"/>
								<rect x="107.43" y="121.016" style="fill:#393F76;" width="6.068" height="1.236"/>
								<rect x="174.811" y="121.016" style="fill:#E7C957;" width="8.28" height="1.236"/>
								<rect x="98.347" y="124.83" style="fill:#E7C957;" width="8.28" height="1.236"/>
								<rect x="98.347" y="134.938" style="fill:#E7C957;" width="8.28" height="1.236"/>
								<rect x="107.43" y="127.573" style="fill:#E7C957;" width="8.28" height="1.236"/>
								<rect x="116.513" y="127.573" style="fill:#00C4FF;" width="20.39" height="1.236"/>
								<rect x="116.513" y="140.861" style="fill:#00C4FF;" width="5.337" height="1.236"/>
								<rect x="107.43" y="130.315" style="fill:#393F76;" width="12.838" height="1.236"/>
								<rect x="120.969" y="130.315" style="fill:#393F76;" width="30.456" height="1.236"/>
								<rect x="152.126" y="130.315" style="fill:#393F76;" width="9.718" height="1.236"/>
								<rect x="162.545" y="130.315" style="fill:#393F76;" width="11.457" height="1.236"/>
								<rect x="114.49" y="133.057" style="fill:#393F76;" width="25.347" height="1.236"/>
								<rect x="107.43" y="133.057" style="fill:#393F76;" width="6.068" height="1.236"/>
								<rect x="140.672" y="133.057" style="fill:#E7C957;" width="8.28" height="1.236"/>
								<rect x="98.347" y="138.118" style="fill:#E7C957;" width="8.28" height="1.236"/>
								<rect x="98.347" y="155.46" style="fill:#E7C957;" width="8.28" height="1.236"/>
								<rect x="107.43" y="140.861" style="fill:#E7C957;" width="8.28" height="1.236"/>
								<rect x="107.43" y="153.129" style="fill:#E7C957;" width="8.28" height="1.236"/>
								<rect x="116.127" y="143.173" style="fill:#E7C957;" width="3.372" height="1.236"/>
								<rect x="120.164" y="143.173" style="fill:#393F76;" width="5.062" height="1.236"/>
								<rect x="125.677" y="143.173" style="fill:#393F76;" width="5.61" height="1.236"/>
								<rect x="131.789" y="143.173" style="fill:#393F76;" width="4.208" height="1.236"/>
								<rect x="120.164" y="150.739" style="fill:#393F76;" width="5.062" height="1.236"/>
								<rect x="125.677" y="150.739" style="fill:#393F76;" width="5.61" height="1.236"/>
								<rect x="131.789" y="150.739" style="fill:#393F76;" width="4.208" height="1.236"/>
								<rect x="120.164" y="145.695" style="fill:#393F76;" width="5.062" height="1.236"/>
								<rect x="128.833" y="145.695" style="fill:#393F76;" width="7.163" height="1.236"/>
								<rect x="125.677" y="145.695" style="fill:#393F76;" width="2.755" height="1.236"/>
								<rect x="120.164" y="148.217" style="fill:#393F76;" width="2.007" height="1.236"/>
								<rect x="122.672" y="148.217" style="fill:#393F76;" width="2.555" height="1.236"/>
								<rect x="125.677" y="148.217" style="fill:#393F76;" width="10.319" height="1.236"/>
								<rect x="116.127" y="145.695" style="fill:#E7C957;" width="3.372" height="1.236"/>
								<rect x="116.127" y="148.217" style="fill:#E7C957;" width="3.372" height="1.236"/>
								<rect x="116.127" y="150.739" style="fill:#E7C957;" width="3.372" height="1.236"/>
								<rect x="136.665" y="143.173" style="fill:#E7C957;" width="3.372" height="1.236"/>
								<rect x="136.665" y="145.695" style="fill:#E7C957;" width="3.372" height="1.236"/>
								<rect x="136.665" y="148.217" style="fill:#E7C957;" width="3.372" height="1.236"/>
								<rect x="136.665" y="150.739" style="fill:#E7C957;" width="3.372" height="1.236"/>
							</g>
							<g>
								<rect x="92.449" y="162.867" style="fill:#E7C957;" width="8.28" height="1.236"/>
								<rect x="98.347" y="170.145" style="fill:#E7C957;" width="8.28" height="1.236"/>
								<rect x="107.43" y="170.145" style="fill:#00C4FF;" width="8.28" height="1.236"/>
								<rect x="116.513" y="170.145" style="fill:#00C4FF;" width="20.39" height="1.236"/>
								<rect x="92.449" y="165.768" style="fill:#393F76;" width="8.28" height="1.236"/>
								<rect x="107.43" y="172.887" style="fill:#393F76;" width="12.838" height="1.236"/>
								<rect x="120.969" y="172.887" style="fill:#393F76;" width="30.456" height="1.236"/>
								<rect x="152.126" y="172.887" style="fill:#393F76;" width="9.718" height="1.236"/>
								<rect x="162.545" y="172.887" style="fill:#393F76;" width="11.457" height="1.236"/>
								<rect x="114.49" y="175.63" style="fill:#393F76;" width="25.347" height="1.236"/>
								<rect x="140.672" y="175.63" style="fill:#393F76;" width="33.331" height="1.236"/>
								<rect x="107.43" y="175.63" style="fill:#393F76;" width="6.068" height="1.236"/>
								<rect x="174.811" y="175.63" style="fill:#E7C957;" width="8.28" height="1.236"/>
								<rect x="98.347" y="179.444" style="fill:#E7C957;" width="8.28" height="1.236"/>
								<rect x="98.347" y="189.552" style="fill:#E7C957;" width="8.28" height="1.236"/>
								<rect x="107.43" y="182.186" style="fill:#E7C957;" width="8.28" height="1.236"/>
								<rect x="116.513" y="182.186" style="fill:#00C4FF;" width="20.39" height="1.236"/>
								<rect x="107.43" y="184.928" style="fill:#393F76;" width="12.838" height="1.236"/>
								<rect x="120.969" y="184.928" style="fill:#393F76;" width="30.456" height="1.236"/>
								<rect x="152.126" y="184.928" style="fill:#393F76;" width="9.718" height="1.236"/>
								<rect x="162.545" y="184.928" style="fill:#393F76;" width="11.457" height="1.236"/>
								<rect x="114.49" y="187.671" style="fill:#393F76;" width="25.347" height="1.236"/>
								<rect x="107.43" y="187.671" style="fill:#393F76;" width="6.068" height="1.236"/>
								<rect x="140.672" y="187.671" style="fill:#E7C957;" width="8.28" height="1.236"/>
								<rect x="98.347" y="192.732" style="fill:#E7C957;" width="8.28" height="1.236"/>
							</g>
						</g>
						<g>
							<g>
								<rect x="92.449" y="196.259" style="fill:#E7C957;" width="8.28" height="1.236"/>
								<rect x="92.449" y="246.955" style="fill:#E7C957;" width="8.28" height="1.236"/>
								<rect x="98.347" y="203.537" style="fill:#E7C957;" width="8.28" height="1.236"/>
								<rect x="107.43" y="203.537" style="fill:#00C4FF;" width="8.28" height="1.236"/>
								<rect x="116.513" y="203.537" style="fill:#00C4FF;" width="20.39" height="1.236"/>
								<rect x="92.449" y="199.16" style="fill:#393F76;" width="8.28" height="1.236"/>
								<rect x="107.43" y="206.279" style="fill:#393F76;" width="12.838" height="1.236"/>
								<rect x="120.969" y="206.279" style="fill:#393F76;" width="30.456" height="1.236"/>
								<rect x="152.126" y="206.279" style="fill:#393F76;" width="9.718" height="1.236"/>
								<rect x="162.545" y="206.279" style="fill:#393F76;" width="11.457" height="1.236"/>
								<rect x="114.49" y="209.021" style="fill:#393F76;" width="25.347" height="1.236"/>
								<rect x="140.672" y="209.021" style="fill:#393F76;" width="33.331" height="1.236"/>
								<rect x="107.43" y="209.021" style="fill:#393F76;" width="6.068" height="1.236"/>
								<rect x="174.811" y="209.021" style="fill:#E7C957;" width="8.28" height="1.236"/>
								<rect x="98.347" y="212.835" style="fill:#E7C957;" width="8.28" height="1.236"/>
								<rect x="98.347" y="222.944" style="fill:#E7C957;" width="8.28" height="1.236"/>
								<rect x="107.43" y="215.578" style="fill:#E7C957;" width="8.28" height="1.236"/>
								<rect x="116.513" y="215.578" style="fill:#00C4FF;" width="20.39" height="1.236"/>
								<rect x="116.513" y="228.866" style="fill:#00C4FF;" width="5.337" height="1.236"/>
								<rect x="107.43" y="218.32" style="fill:#393F76;" width="12.838" height="1.236"/>
								<rect x="120.969" y="218.32" style="fill:#393F76;" width="30.456" height="1.236"/>
								<rect x="152.126" y="218.32" style="fill:#393F76;" width="9.718" height="1.236"/>
								<rect x="162.545" y="218.32" style="fill:#393F76;" width="11.457" height="1.236"/>
								<rect x="114.49" y="221.062" style="fill:#393F76;" width="25.347" height="1.236"/>
								<rect x="107.43" y="221.062" style="fill:#393F76;" width="6.068" height="1.236"/>
								<rect x="140.672" y="221.062" style="fill:#E7C957;" width="8.28" height="1.236"/>
								<rect x="98.347" y="226.124" style="fill:#E7C957;" width="8.28" height="1.236"/>
								<rect x="98.347" y="243.465" style="fill:#E7C957;" width="8.28" height="1.236"/>
								<rect x="107.43" y="228.866" style="fill:#E7C957;" width="8.28" height="1.236"/>
								<rect x="107.43" y="241.134" style="fill:#E7C957;" width="8.28" height="1.236"/>
								<rect x="116.127" y="231.178" style="fill:#E7C957;" width="3.372" height="1.236"/>
								<rect x="120.164" y="231.178" style="fill:#393F76;" width="5.062" height="1.236"/>
								<rect x="125.677" y="231.178" style="fill:#393F76;" width="5.61" height="1.236"/>
								<rect x="131.789" y="231.178" style="fill:#393F76;" width="4.208" height="1.236"/>
								<rect x="120.164" y="238.745" style="fill:#393F76;" width="5.062" height="1.236"/>
								<rect x="125.677" y="238.745" style="fill:#393F76;" width="5.61" height="1.236"/>
								<rect x="131.789" y="238.745" style="fill:#393F76;" width="4.208" height="1.236"/>
								<rect x="120.164" y="233.7" style="fill:#393F76;" width="5.062" height="1.236"/>
								<rect x="128.833" y="233.7" style="fill:#393F76;" width="7.163" height="1.236"/>
								<rect x="125.677" y="233.7" style="fill:#393F76;" width="2.755" height="1.236"/>
								<rect x="120.164" y="236.222" style="fill:#393F76;" width="2.007" height="1.236"/>
								<rect x="122.672" y="236.222" style="fill:#393F76;" width="2.555" height="1.236"/>
								<rect x="125.677" y="236.222" style="fill:#393F76;" width="10.319" height="1.236"/>
								<rect x="116.127" y="233.7" style="fill:#E7C957;" width="3.372" height="1.236"/>
								<rect x="116.127" y="236.222" style="fill:#E7C957;" width="3.372" height="1.236"/>
								<rect x="116.127" y="238.745" style="fill:#E7C957;" width="3.372" height="1.236"/>
								<rect x="136.665" y="231.178" style="fill:#E7C957;" width="3.372" height="1.236"/>
								<rect x="136.665" y="233.7" style="fill:#E7C957;" width="3.372" height="1.236"/>
								<rect x="136.665" y="236.222" style="fill:#E7C957;" width="3.372" height="1.236"/>
								<rect x="136.665" y="238.745" style="fill:#E7C957;" width="3.372" height="1.236"/>
							</g>
							<g>
								<rect x="92.449" y="250.872" style="fill:#E7C957;" width="8.28" height="1.236"/>
								<rect x="98.347" y="258.15" style="fill:#E7C957;" width="8.28" height="1.236"/>
								<rect x="107.43" y="258.15" style="fill:#00C4FF;" width="8.28" height="1.236"/>
								<rect x="116.513" y="258.15" style="fill:#00C4FF;" width="20.39" height="1.236"/>
								<rect x="92.449" y="253.773" style="fill:#393F76;" width="8.28" height="1.236"/>
								<rect x="107.43" y="260.893" style="fill:#393F76;" width="12.838" height="1.236"/>
								<rect x="120.969" y="260.893" style="fill:#393F76;" width="30.456" height="1.236"/>
								<rect x="152.126" y="260.893" style="fill:#393F76;" width="9.718" height="1.236"/>
								<rect x="162.545" y="260.893" style="fill:#393F76;" width="11.457" height="1.236"/>
								<rect x="114.49" y="263.635" style="fill:#393F76;" width="25.347" height="1.236"/>
								<rect x="140.672" y="263.635" style="fill:#393F76;" width="33.331" height="1.236"/>
								<rect x="107.43" y="263.635" style="fill:#393F76;" width="6.068" height="1.236"/>
								<rect x="174.811" y="263.635" style="fill:#E7C957;" width="8.28" height="1.236"/>
								<rect x="98.347" y="267.449" style="fill:#E7C957;" width="8.28" height="1.236"/>
								<rect x="98.347" y="277.557" style="fill:#E7C957;" width="8.28" height="1.236"/>
								<rect x="107.43" y="270.191" style="fill:#E7C957;" width="8.28" height="1.236"/>
								<rect x="116.513" y="270.191" style="fill:#00C4FF;" width="20.39" height="1.236"/>
								<rect x="107.43" y="272.934" style="fill:#393F76;" width="12.838" height="1.236"/>
								<rect x="120.969" y="272.934" style="fill:#393F76;" width="30.456" height="1.236"/>
								<rect x="152.126" y="272.934" style="fill:#393F76;" width="9.718" height="1.236"/>
								<rect x="162.545" y="272.934" style="fill:#393F76;" width="11.457" height="1.236"/>
								<rect x="114.49" y="275.676" style="fill:#393F76;" width="25.347" height="1.236"/>
								<rect x="107.43" y="275.676" style="fill:#393F76;" width="6.068" height="1.236"/>
								<rect x="140.672" y="275.676" style="fill:#E7C957;" width="8.28" height="1.236"/>
								<rect x="98.347" y="280.737" style="fill:#E7C957;" width="8.28" height="1.236"/>
							</g>
						</g>
					</g>
					<g>
						<circle style="fill:#E7C957;" cx="84.651" cy="98.344" r="0.904"/>
						<circle style="fill:#F7E02C;" cx="88.098" cy="98.344" r="0.904"/>
						<path style="fill:#A1BC31;" d="M90.642,98.344c0-0.499,0.405-0.904,0.904-0.904c0.499,0,0.904,0.405,0.904,0.904
							c0,0.499-0.405,0.904-0.904,0.904C91.046,99.248,90.642,98.843,90.642,98.344z"/>
					</g>
				</g>
				<g>
					<path style="fill:#FAFAFB;" d="M193.104,49.274V43.57c0-0.593-0.481-1.074-1.074-1.074h-30.914
						c-0.593,0-1.074,0.481-1.074,1.074v6.778v236.15c0,0.593,0.481,1.074,1.074,1.074h142.949c0.593,0,1.074-0.481,1.074-1.074
						V51.422c0-0.593-0.481-1.074-1.074-1.074H194.178C193.585,50.348,193.104,49.867,193.104,49.274z"/>
					
						<rect x="116.525" y="98.957" transform="matrix(-1.836970e-16 1 -1 -1.836970e-16 401.5504 -63.6307)" style="fill:#11185A;" width="232.132" height="140.005"/>
					<g>
						<g>
							<g>
								<rect x="175.129" y="60.217" style="fill:#E7C957;" width="10.498" height="1.567"/>
								<rect x="175.129" y="124.494" style="fill:#E7C957;" width="10.498" height="1.567"/>
								<rect x="182.606" y="69.445" style="fill:#E7C957;" width="10.498" height="1.567"/>
								<rect x="194.123" y="69.445" style="fill:#00C4FF;" width="10.498" height="1.567"/>
								<rect x="205.639" y="69.445" style="fill:#00C4FF;" width="25.852" height="1.567"/>
								<rect x="175.129" y="63.895" style="fill:#393F76;" width="10.498" height="1.567"/>
								<rect x="194.123" y="72.921" style="fill:#393F76;" width="16.276" height="1.567"/>
								<rect x="211.288" y="72.921" style="fill:#393F76;" width="38.615" height="1.567"/>
								<rect x="250.792" y="72.921" style="fill:#393F76;" width="12.321" height="1.567"/>
								<rect x="264.003" y="72.921" style="fill:#393F76;" width="14.527" height="1.567"/>
								<rect x="203.074" y="76.398" style="fill:#393F76;" width="32.137" height="1.567"/>
								<rect x="236.269" y="76.398" style="fill:#393F76;" width="42.26" height="1.567"/>
								<rect x="194.123" y="76.398" style="fill:#393F76;" width="7.694" height="1.567"/>
								<rect x="279.554" y="76.398" style="fill:#E7C957;" width="10.498" height="1.567"/>
								<rect x="182.606" y="81.234" style="fill:#E7C957;" width="10.498" height="1.567"/>
								<rect x="182.606" y="94.05" style="fill:#E7C957;" width="10.498" height="1.567"/>
								<rect x="194.123" y="84.711" style="fill:#E7C957;" width="10.498" height="1.567"/>
								<rect x="205.639" y="84.711" style="fill:#00C4FF;" width="25.852" height="1.567"/>
								<rect x="205.639" y="101.559" style="fill:#00C4FF;" width="6.767" height="1.567"/>
								<rect x="194.123" y="88.188" style="fill:#393F76;" width="16.276" height="1.567"/>
								<rect x="211.288" y="88.188" style="fill:#393F76;" width="38.615" height="1.567"/>
								<rect x="250.792" y="88.188" style="fill:#393F76;" width="12.321" height="1.567"/>
								<rect x="264.003" y="88.188" style="fill:#393F76;" width="14.527" height="1.567"/>
								<rect x="203.074" y="91.665" style="fill:#393F76;" width="32.137" height="1.567"/>
								<rect x="194.123" y="91.665" style="fill:#393F76;" width="7.694" height="1.567"/>
								<rect x="236.269" y="91.665" style="fill:#E7C957;" width="10.498" height="1.567"/>
								<rect x="182.606" y="98.082" style="fill:#E7C957;" width="10.498" height="1.567"/>
								<rect x="182.606" y="120.069" style="fill:#E7C957;" width="10.498" height="1.567"/>
								<rect x="194.123" y="101.559" style="fill:#E7C957;" width="10.498" height="1.567"/>
								<rect x="194.123" y="117.114" style="fill:#E7C957;" width="10.498" height="1.567"/>
								<rect x="205.15" y="104.49" style="fill:#E7C957;" width="4.275" height="1.567"/>
								<rect x="210.268" y="104.49" style="fill:#393F76;" width="6.418" height="1.567"/>
								<rect x="217.258" y="104.49" style="fill:#393F76;" width="7.113" height="1.567"/>
								<rect x="225.007" y="104.49" style="fill:#393F76;" width="5.335" height="1.567"/>
								<rect x="210.268" y="114.084" style="fill:#393F76;" width="6.418" height="1.567"/>
								<rect x="217.258" y="114.084" style="fill:#393F76;" width="7.113" height="1.567"/>
								<rect x="225.007" y="114.084" style="fill:#393F76;" width="5.335" height="1.567"/>
								<rect x="210.268" y="107.688" style="fill:#393F76;" width="6.418" height="1.567"/>
								<rect x="221.26" y="107.688" style="fill:#393F76;" width="9.082" height="1.567"/>
								<rect x="217.258" y="107.688" style="fill:#393F76;" width="3.493" height="1.567"/>
								<rect x="210.268" y="110.886" style="fill:#393F76;" width="2.544" height="1.567"/>
								<rect x="213.448" y="110.886" style="fill:#393F76;" width="3.239" height="1.567"/>
								<rect x="217.258" y="110.886" style="fill:#393F76;" width="13.083" height="1.567"/>
								<rect x="205.15" y="107.688" style="fill:#E7C957;" width="4.275" height="1.567"/>
								<rect x="205.15" y="110.886" style="fill:#E7C957;" width="4.275" height="1.567"/>
								<rect x="205.15" y="114.084" style="fill:#E7C957;" width="4.275" height="1.567"/>
								<rect x="231.19" y="104.49" style="fill:#E7C957;" width="4.275" height="1.567"/>
								<rect x="231.19" y="107.688" style="fill:#E7C957;" width="4.275" height="1.567"/>
								<rect x="231.19" y="110.886" style="fill:#E7C957;" width="4.275" height="1.567"/>
								<rect x="231.19" y="114.084" style="fill:#E7C957;" width="4.275" height="1.567"/>
							</g>
							<g>
								<rect x="175.129" y="129.46" style="fill:#E7C957;" width="10.498" height="1.567"/>
								<rect x="182.606" y="138.688" style="fill:#E7C957;" width="10.498" height="1.567"/>
								<rect x="194.123" y="138.688" style="fill:#00C4FF;" width="10.498" height="1.567"/>
								<rect x="205.639" y="138.688" style="fill:#00C4FF;" width="25.852" height="1.567"/>
								<rect x="175.129" y="133.139" style="fill:#393F76;" width="10.498" height="1.567"/>
								<rect x="194.123" y="142.165" style="fill:#393F76;" width="16.276" height="1.567"/>
								<rect x="211.288" y="142.165" style="fill:#393F76;" width="38.615" height="1.567"/>
								<rect x="250.792" y="142.165" style="fill:#393F76;" width="12.321" height="1.567"/>
								<rect x="264.003" y="142.165" style="fill:#393F76;" width="14.527" height="1.567"/>
								<rect x="203.074" y="145.642" style="fill:#393F76;" width="32.137" height="1.567"/>
								<rect x="236.269" y="145.642" style="fill:#393F76;" width="42.26" height="1.567"/>
								<rect x="194.123" y="145.642" style="fill:#393F76;" width="7.694" height="1.567"/>
								<rect x="279.554" y="145.642" style="fill:#E7C957;" width="10.498" height="1.567"/>
								<rect x="182.606" y="150.478" style="fill:#E7C957;" width="10.498" height="1.567"/>
								<rect x="182.606" y="163.294" style="fill:#E7C957;" width="10.498" height="1.567"/>
								<rect x="194.123" y="153.955" style="fill:#E7C957;" width="10.498" height="1.567"/>
								<rect x="205.639" y="153.955" style="fill:#00C4FF;" width="25.852" height="1.567"/>
								<rect x="194.123" y="157.432" style="fill:#393F76;" width="16.276" height="1.567"/>
								<rect x="211.288" y="157.432" style="fill:#393F76;" width="38.615" height="1.567"/>
								<rect x="250.792" y="157.432" style="fill:#393F76;" width="12.321" height="1.567"/>
								<rect x="264.003" y="157.432" style="fill:#393F76;" width="14.527" height="1.567"/>
								<rect x="203.074" y="160.908" style="fill:#393F76;" width="32.137" height="1.567"/>
								<rect x="194.123" y="160.908" style="fill:#393F76;" width="7.694" height="1.567"/>
								<rect x="236.269" y="160.908" style="fill:#E7C957;" width="10.498" height="1.567"/>
								<rect x="182.606" y="167.326" style="fill:#E7C957;" width="10.498" height="1.567"/>
							</g>
						</g>
						<g>
							<g>
								<rect x="175.129" y="171.797" style="fill:#E7C957;" width="10.498" height="1.567"/>
								<rect x="175.129" y="236.075" style="fill:#E7C957;" width="10.498" height="1.567"/>
								<rect x="182.606" y="181.025" style="fill:#E7C957;" width="10.498" height="1.567"/>
								<rect x="194.123" y="181.025" style="fill:#00C4FF;" width="10.498" height="1.567"/>
								<rect x="205.639" y="181.025" style="fill:#00C4FF;" width="25.852" height="1.567"/>
								<rect x="175.129" y="175.476" style="fill:#393F76;" width="10.498" height="1.567"/>
								<rect x="194.123" y="184.502" style="fill:#393F76;" width="16.276" height="1.567"/>
								<rect x="211.288" y="184.502" style="fill:#393F76;" width="38.615" height="1.567"/>
								<rect x="250.792" y="184.502" style="fill:#393F76;" width="12.321" height="1.567"/>
								<rect x="264.003" y="184.502" style="fill:#393F76;" width="14.527" height="1.567"/>
								<rect x="203.074" y="187.979" style="fill:#393F76;" width="32.137" height="1.567"/>
								<rect x="236.269" y="187.979" style="fill:#393F76;" width="42.26" height="1.567"/>
								<rect x="194.123" y="187.979" style="fill:#393F76;" width="7.694" height="1.567"/>
								<rect x="279.554" y="187.979" style="fill:#E7C957;" width="10.498" height="1.567"/>
								<rect x="182.606" y="192.815" style="fill:#E7C957;" width="10.498" height="1.567"/>
								<rect x="182.606" y="205.631" style="fill:#E7C957;" width="10.498" height="1.567"/>
								<rect x="194.123" y="196.292" style="fill:#E7C957;" width="10.498" height="1.567"/>
								<rect x="205.639" y="196.292" style="fill:#00C4FF;" width="25.852" height="1.567"/>
								<rect x="205.639" y="213.139" style="fill:#00C4FF;" width="6.767" height="1.567"/>
								<rect x="194.123" y="199.768" style="fill:#393F76;" width="16.276" height="1.567"/>
								<rect x="211.288" y="199.768" style="fill:#393F76;" width="38.615" height="1.567"/>
								<rect x="250.792" y="199.768" style="fill:#393F76;" width="12.321" height="1.567"/>
								<rect x="264.003" y="199.768" style="fill:#393F76;" width="14.527" height="1.567"/>
								<rect x="203.074" y="203.245" style="fill:#393F76;" width="32.137" height="1.567"/>
								<rect x="194.123" y="203.245" style="fill:#393F76;" width="7.694" height="1.567"/>
								<rect x="236.269" y="203.245" style="fill:#E7C957;" width="10.498" height="1.567"/>
								<rect x="182.606" y="209.663" style="fill:#E7C957;" width="10.498" height="1.567"/>
								<rect x="182.606" y="231.65" style="fill:#E7C957;" width="10.498" height="1.567"/>
								<rect x="194.123" y="213.139" style="fill:#E7C957;" width="10.498" height="1.567"/>
								<rect x="194.123" y="228.694" style="fill:#E7C957;" width="10.498" height="1.567"/>
								<rect x="205.15" y="216.071" style="fill:#E7C957;" width="4.275" height="1.567"/>
								<rect x="210.268" y="216.071" style="fill:#393F76;" width="6.418" height="1.567"/>
								<rect x="217.258" y="216.071" style="fill:#393F76;" width="7.113" height="1.567"/>
								<rect x="225.007" y="216.071" style="fill:#393F76;" width="5.335" height="1.567"/>
								<rect x="210.268" y="225.665" style="fill:#393F76;" width="6.418" height="1.567"/>
								<rect x="217.258" y="225.665" style="fill:#393F76;" width="7.113" height="1.567"/>
								<rect x="225.007" y="225.665" style="fill:#393F76;" width="5.335" height="1.567"/>
								<rect x="210.268" y="219.269" style="fill:#393F76;" width="6.418" height="1.567"/>
								<rect x="221.26" y="219.269" style="fill:#393F76;" width="9.082" height="1.567"/>
								<rect x="217.258" y="219.269" style="fill:#393F76;" width="3.493" height="1.567"/>
								<rect x="210.268" y="222.467" style="fill:#393F76;" width="2.544" height="1.567"/>
								<rect x="213.448" y="222.467" style="fill:#393F76;" width="3.239" height="1.567"/>
								<rect x="217.258" y="222.467" style="fill:#393F76;" width="13.083" height="1.567"/>
								<rect x="205.15" y="219.269" style="fill:#E7C957;" width="4.275" height="1.567"/>
								<rect x="205.15" y="222.467" style="fill:#E7C957;" width="4.275" height="1.567"/>
								<rect x="205.15" y="225.665" style="fill:#E7C957;" width="4.275" height="1.567"/>
								<rect x="231.19" y="216.071" style="fill:#E7C957;" width="4.275" height="1.567"/>
								<rect x="231.19" y="219.269" style="fill:#E7C957;" width="4.275" height="1.567"/>
								<rect x="231.19" y="222.467" style="fill:#E7C957;" width="4.275" height="1.567"/>
								<rect x="231.19" y="225.665" style="fill:#E7C957;" width="4.275" height="1.567"/>
							</g>
							<g>
								<rect x="175.129" y="241.041" style="fill:#E7C957;" width="10.498" height="1.567"/>
								<rect x="182.606" y="250.269" style="fill:#E7C957;" width="10.498" height="1.567"/>
								<rect x="194.123" y="250.269" style="fill:#00C4FF;" width="10.498" height="1.567"/>
								<rect x="205.639" y="250.269" style="fill:#00C4FF;" width="25.852" height="1.567"/>
								<rect x="175.129" y="244.719" style="fill:#393F76;" width="10.498" height="1.567"/>
								<rect x="194.123" y="253.746" style="fill:#393F76;" width="16.276" height="1.567"/>
								<rect x="211.288" y="253.746" style="fill:#393F76;" width="38.615" height="1.567"/>
								<rect x="250.792" y="253.746" style="fill:#393F76;" width="12.321" height="1.567"/>
								<rect x="264.003" y="253.746" style="fill:#393F76;" width="14.527" height="1.567"/>
								<rect x="203.074" y="257.223" style="fill:#393F76;" width="32.137" height="1.567"/>
								<rect x="236.269" y="257.223" style="fill:#393F76;" width="42.26" height="1.567"/>
								<rect x="194.123" y="257.223" style="fill:#393F76;" width="7.694" height="1.567"/>
								<rect x="279.554" y="257.223" style="fill:#E7C957;" width="10.498" height="1.567"/>
								<rect x="182.606" y="262.059" style="fill:#E7C957;" width="10.498" height="1.567"/>
								<rect x="182.606" y="274.875" style="fill:#E7C957;" width="10.498" height="1.567"/>
								<rect x="194.123" y="265.535" style="fill:#E7C957;" width="10.498" height="1.567"/>
								<rect x="205.639" y="265.535" style="fill:#00C4FF;" width="25.852" height="1.567"/>
								<rect x="194.123" y="269.012" style="fill:#393F76;" width="16.276" height="1.567"/>
								<rect x="211.288" y="269.012" style="fill:#393F76;" width="38.615" height="1.567"/>
								<rect x="250.792" y="269.012" style="fill:#393F76;" width="12.321" height="1.567"/>
								<rect x="264.003" y="269.012" style="fill:#393F76;" width="14.527" height="1.567"/>
								<rect x="203.074" y="272.489" style="fill:#393F76;" width="32.137" height="1.567"/>
								<rect x="194.123" y="272.489" style="fill:#393F76;" width="7.694" height="1.567"/>
								<rect x="236.269" y="272.489" style="fill:#E7C957;" width="10.498" height="1.567"/>
								<rect x="182.606" y="278.906" style="fill:#E7C957;" width="10.498" height="1.567"/>
							</g>
						</g>
					</g>
					<g>
						<path style="fill:#E7C957;" d="M164.096,47.653c0-0.633,0.513-1.146,1.146-1.146c0.633,0,1.146,0.513,1.146,1.146
							c0,0.633-0.513,1.146-1.146,1.146C164.609,48.799,164.096,48.286,164.096,47.653z"/>
						<path style="fill:#F7E02C;" d="M168.466,47.653c0-0.633,0.513-1.146,1.146-1.146c0.633,0,1.146,0.513,1.146,1.146
							c0,0.633-0.513,1.146-1.146,1.146C168.98,48.799,168.466,48.286,168.466,47.653z"/>
						<path style="fill:#A1BC31;" d="M172.837,47.653c0-0.633,0.513-1.146,1.146-1.146c0.633,0,1.146,0.513,1.146,1.146
							c0,0.633-0.513,1.146-1.146,1.146C173.35,48.799,172.837,48.286,172.837,47.653z"/>
					</g>
				</g>
				<g>
					<g>
						<g>
							<g>
								<path style="fill:#FAFAFB;" d="M358.935,124.138h-85.974c-0.908,0-1.644-0.736-1.644-1.644V86.778
									c0-0.908,0.736-1.644,1.644-1.644h85.974c0.908,0,1.643,0.736,1.643,1.644v35.716
									C360.579,123.402,359.843,124.138,358.935,124.138z"/>
								<g>
									
										<rect x="304.98" y="68.539" transform="matrix(-1.836970e-16 1 -1 -1.836970e-16 423.1304 -208.7658)" style="fill:#00C4FF;" width="21.937" height="77.286"/>
									<g>
										<path style="fill:#E7C957;" d="M277.305,91.09c0-0.997,0.808-1.805,1.805-1.805c0.997,0,1.805,0.808,1.805,1.805
											c0,0.997-0.808,1.805-1.805,1.805C278.113,92.896,277.305,92.087,277.305,91.09z"/>
										<path style="fill:#F7E02C;" d="M284.191,91.09c0-0.997,0.808-1.805,1.805-1.805c0.997,0,1.805,0.808,1.805,1.805
											c0,0.997-0.808,1.805-1.805,1.805C284.999,92.896,284.191,92.087,284.191,91.09z"/>
										<path style="fill:#A1BC31;" d="M291.076,91.09c0-0.997,0.808-1.805,1.805-1.805c0.997,0,1.805,0.808,1.805,1.805
											c0,0.997-0.808,1.805-1.805,1.805C291.884,92.896,291.076,92.087,291.076,91.09z"/>
									</g>
								</g>
							</g>
							<rect x="329.251" y="90.188" style="fill:#72B4CC;" width="25.34" height="1.805"/>
						</g>
						
							<text transform="matrix(1 0 0 1 282.3291 109.3833)" style="fill:#FFFFFF; font-family:'Montserrat-Bold'; font-size:7.2335px;">&lt;!DOCTYPE html&gt;</text>
					</g>
					<g>
						<g>
							<g>
								<path style="fill:#FAFAFB;" d="M430.021,105.494h-59.726c-0.908,0-1.643-0.736-1.643-1.644V68.134
									c0-0.908,0.736-1.644,1.643-1.644h59.726c0.908,0,1.644,0.736,1.644,1.644v35.716
									C431.664,104.758,430.928,105.494,430.021,105.494z"/>
								<g>
									
										<rect x="389.189" y="63.019" transform="matrix(-1.836970e-16 1 -1 -1.836970e-16 488.6951 -311.6198)" style="fill:#F1D35E;" width="21.937" height="51.038"/>
									<g>
										<circle style="fill:#E7C957;" cx="376.444" cy="72.446" r="1.805"/>
										<circle style="fill:#F7E02C;" cx="383.329" cy="72.446" r="1.805"/>
										<circle style="fill:#A1BC31;" cx="390.215" cy="72.446" r="1.805"/>
									</g>
								</g>
							</g>
							<rect x="400.337" y="71.543" style="fill:#00C4FF;" width="25.34" height="1.805"/>
						</g>
						
							<text transform="matrix(1 0 0 1 385.0758 92.4028)" style="fill:#FFFFFF; font-family:'Montserrat-Bold'; font-size:13.8377px;">CSS</text>
					</g>
					<g>
						<path style="fill:#00C4FF;" d="M430.133,134.557h-59.952c-0.845,0-1.531-0.685-1.531-1.531V116.11
							c0-0.845,0.685-1.531,1.531-1.531h59.952c0.845,0,1.531,0.685,1.531,1.531v16.916
							C431.664,133.871,430.979,134.557,430.133,134.557z"/>
						<text transform="matrix(1 0 0 1 373.5703 127.3984)" style="fill:#FFFFFF; font-family:'Montserrat-Bold'; font-size:9px;">&lt;div&gt;&lt;/div&gt;</text>
					</g>
				</g>
				<g>
					<g>
						<g>
							<path style="fill:#FFFFFF;" d="M137.489,63.209h-1.095c-0.091-0.591-0.243-1.161-0.453-1.704l0.945-0.546
								c0.121-0.07,0.163-0.225,0.093-0.346l-0.99-1.715c-0.07-0.121-0.225-0.163-0.346-0.093l-0.944,0.545
								c-0.37-0.46-0.788-0.878-1.248-1.248l0.545-0.944c0.07-0.121,0.029-0.276-0.093-0.346l-1.715-0.99
								c-0.121-0.07-0.276-0.028-0.346,0.093l-0.546,0.945c-0.542-0.211-1.112-0.363-1.704-0.453v-1.095
								c0-0.14-0.113-0.253-0.253-0.253h-1.98c-0.14,0-0.253,0.113-0.253,0.253v1.095c-0.591,0.091-1.161,0.243-1.703,0.453
								l-0.546-0.945c-0.07-0.121-0.225-0.163-0.346-0.093l-1.715,0.99c-0.121,0.07-0.163,0.225-0.093,0.346l0.545,0.944
								c-0.46,0.37-0.878,0.788-1.248,1.248l-0.943-0.545c-0.121-0.07-0.276-0.028-0.346,0.093l-0.99,1.715
								c-0.07,0.121-0.028,0.276,0.093,0.346l0.945,0.546c-0.211,0.542-0.363,1.112-0.453,1.704h-1.095
								c-0.14,0-0.253,0.113-0.253,0.253v1.98c0,0.14,0.114,0.253,0.253,0.253h1.095c0.091,0.591,0.243,1.161,0.453,1.704
								l-0.945,0.546c-0.121,0.07-0.163,0.225-0.093,0.346l0.99,1.715c0.07,0.121,0.225,0.163,0.346,0.093L122,69.554
								c0.37,0.46,0.788,0.878,1.248,1.248l-0.545,0.944c-0.07,0.121-0.029,0.276,0.093,0.346l1.715,0.99
								c0.121,0.07,0.276,0.028,0.346-0.093l0.546-0.945c0.542,0.211,1.112,0.363,1.703,0.453v1.095c0,0.14,0.114,0.253,0.253,0.253
								h1.98c0.14,0,0.253-0.113,0.253-0.253v-1.095c0.591-0.091,1.161-0.243,1.704-0.453l0.546,0.945
								c0.07,0.121,0.225,0.163,0.346,0.093l1.715-0.99c0.121-0.07,0.163-0.225,0.093-0.346l-0.545-0.944
								c0.46-0.37,0.878-0.788,1.248-1.248l0.944,0.545c0.121,0.07,0.276,0.028,0.346-0.093l0.99-1.715
								c0.07-0.121,0.028-0.276-0.093-0.346l-0.945-0.546c0.211-0.542,0.363-1.112,0.453-1.704h1.095
								c0.14,0,0.253-0.113,0.253-0.253v-1.98C137.742,63.322,137.629,63.209,137.489,63.209z M128.35,69.396
								c-2.73,0-4.944-2.213-4.944-4.944c0-2.73,2.213-4.944,4.944-4.944c2.731,0,4.944,2.214,4.944,4.944
								C133.294,67.182,131.08,69.396,128.35,69.396z"/>
							<path style="fill:#FFFFFF;" d="M123.939,46.276h-1.794c-0.149-0.969-0.398-1.903-0.743-2.792l1.549-0.895
								c0.199-0.115,0.267-0.368,0.152-0.567l-1.622-2.81c-0.115-0.199-0.369-0.267-0.567-0.152l-1.546,0.893
								c-0.606-0.754-1.291-1.439-2.045-2.045l0.893-1.546c0.115-0.199,0.047-0.452-0.152-0.567l-2.81-1.622
								c-0.199-0.115-0.452-0.047-0.567,0.152l-0.894,1.549c-0.889-0.345-1.823-0.594-2.792-0.743v-1.794
								c0-0.229-0.186-0.415-0.415-0.415h-3.245c-0.229,0-0.415,0.186-0.415,0.415v1.794c-0.969,0.149-1.903,0.398-2.792,0.743
								l-0.894-1.549c-0.115-0.198-0.369-0.267-0.567-0.152l-2.81,1.622c-0.199,0.115-0.267,0.369-0.152,0.567l0.893,1.546
								c-0.753,0.606-1.439,1.291-2.045,2.045l-1.546-0.893c-0.199-0.115-0.452-0.047-0.567,0.152l-1.622,2.81
								c-0.115,0.199-0.047,0.452,0.152,0.567l1.549,0.895c-0.345,0.889-0.594,1.823-0.743,2.792h-1.794
								c-0.229,0-0.415,0.186-0.415,0.415v3.245c0,0.229,0.186,0.415,0.415,0.415h1.794c0.149,0.969,0.398,1.903,0.743,2.792
								l-1.549,0.894c-0.199,0.115-0.267,0.369-0.152,0.567l1.622,2.81c0.115,0.199,0.369,0.267,0.567,0.152l1.546-0.893
								c0.606,0.754,1.291,1.439,2.045,2.045l-0.893,1.546c-0.115,0.199-0.047,0.452,0.152,0.567l2.81,1.622
								c0.199,0.115,0.452,0.047,0.567-0.152l0.894-1.549c0.889,0.345,1.823,0.594,2.792,0.743v1.794
								c0,0.229,0.186,0.415,0.415,0.415h3.245c0.229,0,0.415-0.186,0.415-0.415v-1.794c0.969-0.149,1.903-0.398,2.792-0.743
								l0.894,1.549c0.115,0.199,0.369,0.267,0.567,0.152l2.81-1.622c0.199-0.115,0.267-0.369,0.152-0.567l-0.893-1.546
								c0.754-0.606,1.439-1.291,2.045-2.045l1.546,0.893c0.199,0.115,0.453,0.047,0.567-0.152l1.622-2.81
								c0.115-0.198,0.047-0.452-0.152-0.567l-1.549-0.894c0.345-0.889,0.594-1.823,0.743-2.792h1.794
								c0.229,0,0.415-0.186,0.415-0.415v-3.245C124.354,46.461,124.169,46.276,123.939,46.276z M108.962,56.415
								c-4.474,0-8.102-3.627-8.102-8.102c0-4.475,3.627-8.102,8.102-8.102c4.474,0,8.102,3.627,8.102,8.102
								C117.064,52.788,113.437,56.415,108.962,56.415z"/>
						</g>
						<path style="fill:#FFFFFF;" d="M107.61,48.313c0-0.747,0.605-1.352,1.352-1.352c0.747,0,1.352,0.605,1.352,1.352
							c0,0.747-0.605,1.352-1.352,1.352C108.216,49.665,107.61,49.06,107.61,48.313z"/>
						<path style="fill:#FFFFFF;" d="M127.603,64.452c0-0.412,0.334-0.747,0.747-0.747c0.412,0,0.747,0.334,0.747,0.747
							c0,0.412-0.334,0.747-0.747,0.747C127.937,65.199,127.603,64.864,127.603,64.452z"/>
					</g>
				</g>
				<g>
					<path style="fill:#FFFFFF;" d="M349.545,61.848c-0.07,0-0.137,0.008-0.206,0.01c-0.801-3.484-3.915-6.084-7.642-6.084
						c-0.71,0-1.395,0.103-2.049,0.28c-1.729-3.675-5.455-6.225-9.785-6.225c-5.54,0-10.101,4.167-10.738,9.536
						c-3.506,0.785-6.128,3.91-6.128,7.653c0,4.334,3.514,7.848,7.848,7.848c2.796,0,26.127,0,28.7,0
						c3.595,0,6.509-2.914,6.509-6.509C356.054,64.763,353.139,61.848,349.545,61.848z"/>
				</g>
				<g>
					<g>
						<g>
							<path style="fill:#FFFFFF;" d="M324.885,148.727l4.578,5.083l4.688,5.204c0.057,0.063,0.156,0.063,0.213,0l4.688-5.204
								l4.578-5.083c0.083-0.092,0.018-0.239-0.107-0.239h-4.435v-7.621h-9.663v7.621h-4.435
								C324.867,148.488,324.801,148.635,324.885,148.727z"/>
							<rect x="329.426" y="137.908" style="fill:#FFFFFF;" width="9.663" height="1.562"/>
							<rect x="329.426" y="134.967" style="fill:#FFFFFF;" width="9.663" height="1.562"/>
						</g>
					</g>
				</g>
			</g>
			<g>
				<g>
					<g>
						<path style="fill:#F7F7F8;" d="M430.028,270.338H284.782c-0.409,0-0.741-0.332-0.741-0.741V170.12
							c0-2.208,1.79-3.999,3.999-3.999h138.73c2.209,0,3.999,1.79,3.999,3.999v99.477
							C430.769,270.006,430.437,270.338,430.028,270.338z"/>
						
							<rect x="310.463" y="150.032" transform="matrix(-1.836970e-16 1 -1 -1.836970e-16 575.6342 -139.1755)" style="fill:#F8F6F5;" width="93.884" height="136.395"/>
						
							<rect x="285.758" y="174.737" transform="matrix(-1.836970e-16 1 -1 -1.836970e-16 550.9288 -114.4701)" style="fill:#FFFFFF;" width="93.884" height="86.984"/>
						
							<rect x="329.037" y="131.458" transform="matrix(-1.836970e-16 1 -1 -1.836970e-16 507.6493 -157.7497)" style="fill:#E7C957;" width="7.325" height="86.984"/>
						
							<rect x="303.542" y="192.521" transform="matrix(-1.836970e-16 1 -1 -1.836970e-16 568.713 -96.686)" style="fill:#4343E6;" width="58.316" height="86.984"/>
						
							<rect x="316.372" y="205.351" transform="matrix(-1.836970e-16 1 -1 -1.836970e-16 581.543 -83.8559)" style="fill:#FFFFFF;" width="32.655" height="86.984"/>
						
							<rect x="353.955" y="193.524" transform="matrix(-1.836970e-16 1 -1 -1.836970e-16 619.1265 -182.6677)" style="fill:#00C4FF;" width="93.884" height="49.411"/>
					</g>
					<g>
						<path style="fill:#D7D8DC;" d="M357.405,169.904c-0.478,0-0.867-0.389-0.867-0.867c0-0.478,0.389-0.867,0.867-0.867
							c0.478,0,0.867,0.389,0.867,0.867C358.272,169.515,357.883,169.904,357.405,169.904z M357.405,168.687
							c-0.193,0-0.35,0.157-0.35,0.35c0,0.193,0.157,0.35,0.35,0.35c0.193,0,0.351-0.157,0.351-0.35
							C357.755,168.844,357.598,168.687,357.405,168.687z"/>
					</g>
				</g>
				<g>
					<g>
						<g>
							<rect x="390.538" y="179.807" style="fill:#FFFFFF;" width="9.655" height="1.033"/>
							<rect x="390.538" y="182.035" style="fill:#FFFFFF;" width="13.982" height="1.033"/>
							<rect x="390.538" y="184.263" style="fill:#FFFFFF;" width="9.655" height="1.033"/>
							<rect x="390.538" y="186.491" style="fill:#FFFFFF;" width="13.982" height="1.033"/>
						</g>
						<g>
							<rect x="383.724" y="177.579" style="fill:#1F1A82;" width="14.725" height="1.033"/>
							<rect x="383.724" y="179.807" style="fill:#E7C957;" width="5.78" height="1.033"/>
							<rect x="383.724" y="182.035" style="fill:#E7C957;" width="5.78" height="1.033"/>
							<rect x="383.724" y="184.263" style="fill:#E7C957;" width="5.78" height="1.033"/>
							<rect x="383.724" y="186.491" style="fill:#E7C957;" width="5.78" height="1.033"/>
							<path style="fill:#1F1A82;" d="M382.078,178.096c0-0.285,0.231-0.517,0.517-0.517c0.285,0,0.517,0.231,0.517,0.517
								c0,0.285-0.231,0.517-0.517,0.517C382.309,178.612,382.078,178.381,382.078,178.096z"/>
						</g>
					</g>
					<g>
						<g>
							<rect x="390.538" y="194.445" style="fill:#FFFFFF;" width="9.655" height="1.033"/>
							<rect x="390.538" y="196.673" style="fill:#FFFFFF;" width="13.982" height="1.033"/>
							<rect x="390.538" y="198.901" style="fill:#FFFFFF;" width="9.655" height="1.033"/>
							<rect x="390.538" y="201.129" style="fill:#FFFFFF;" width="13.982" height="1.033"/>
						</g>
						<g>
							<rect x="383.724" y="192.217" style="fill:#3832B2;" width="14.725" height="1.033"/>
							<rect x="383.724" y="194.445" style="fill:#E7C957;" width="5.78" height="1.033"/>
							<rect x="383.724" y="196.673" style="fill:#E7C957;" width="5.78" height="1.033"/>
							<rect x="383.724" y="198.901" style="fill:#E7C957;" width="5.78" height="1.033"/>
							<rect x="383.724" y="201.129" style="fill:#E7C957;" width="5.78" height="1.033"/>
							<path style="fill:#3832B2;" d="M382.078,192.734c0-0.285,0.231-0.517,0.517-0.517c0.285,0,0.517,0.231,0.517,0.517
								c0,0.285-0.231,0.517-0.517,0.517C382.309,193.251,382.078,193.019,382.078,192.734z"/>
						</g>
					</g>
					<g>
						<g>
							<rect x="390.538" y="209.084" style="fill:#FFFFFF;" width="9.655" height="1.033"/>
							<rect x="390.538" y="211.312" style="fill:#FFFFFF;" width="13.982" height="1.033"/>
							<rect x="390.538" y="213.54" style="fill:#FFFFFF;" width="9.655" height="1.033"/>
							<rect x="390.538" y="215.768" style="fill:#FFFFFF;" width="13.982" height="1.033"/>
						</g>
						<g>
							<rect x="383.724" y="206.856" style="fill:#3832B2;" width="14.725" height="1.033"/>
							<rect x="383.724" y="209.084" style="fill:#E7C957;" width="5.78" height="1.033"/>
							<rect x="383.724" y="211.312" style="fill:#E7C957;" width="5.78" height="1.033"/>
							<rect x="383.724" y="213.54" style="fill:#E7C957;" width="5.78" height="1.033"/>
							<rect x="383.724" y="215.768" style="fill:#E7C957;" width="5.78" height="1.033"/>
							<path style="fill:#3832B2;" d="M382.078,207.372c0-0.285,0.231-0.517,0.517-0.517c0.285,0,0.517,0.231,0.517,0.517
								c0,0.285-0.231,0.517-0.517,0.517C382.309,207.889,382.078,207.658,382.078,207.372z"/>
						</g>
					</g>
					<g>
						<g>
							<rect x="390.538" y="223.722" style="fill:#FFFFFF;" width="9.655" height="1.033"/>
							<rect x="390.538" y="225.95" style="fill:#FFFFFF;" width="13.982" height="1.033"/>
							<rect x="390.538" y="228.178" style="fill:#FFFFFF;" width="9.655" height="1.033"/>
							<rect x="390.538" y="230.406" style="fill:#FFFFFF;" width="13.982" height="1.033"/>
						</g>
						<g>
							<rect x="383.724" y="221.494" style="fill:#1F1A82;" width="14.725" height="1.033"/>
							<rect x="383.724" y="223.722" style="fill:#E7C957;" width="5.78" height="1.033"/>
							<rect x="383.724" y="225.95" style="fill:#E7C957;" width="5.78" height="1.033"/>
							<rect x="383.724" y="228.178" style="fill:#E7C957;" width="5.78" height="1.033"/>
							<rect x="383.724" y="230.406" style="fill:#E7C957;" width="5.78" height="1.033"/>
							<path style="fill:#1F1A82;" d="M382.078,222.011c0-0.285,0.231-0.517,0.517-0.517c0.285,0,0.517,0.231,0.517,0.517
								c0,0.285-0.231,0.517-0.517,0.517C382.309,222.527,382.078,222.296,382.078,222.011z"/>
						</g>
					</g>
					<g>
						<g>
							<rect x="390.538" y="238.36" style="fill:#FFFFFF;" width="9.655" height="1.033"/>
							<rect x="390.538" y="240.588" style="fill:#FFFFFF;" width="13.982" height="1.033"/>
							<rect x="390.538" y="242.816" style="fill:#FFFFFF;" width="9.655" height="1.033"/>
							<rect x="390.538" y="245.044" style="fill:#FFFFFF;" width="13.982" height="1.033"/>
						</g>
						<g>
							<rect x="383.724" y="236.132" style="fill:#1F1A82;" width="14.725" height="1.033"/>
							<rect x="383.724" y="238.36" style="fill:#E7C957;" width="5.78" height="1.033"/>
							<rect x="383.724" y="240.588" style="fill:#E7C957;" width="5.78" height="1.033"/>
							<rect x="383.724" y="242.816" style="fill:#E7C957;" width="5.78" height="1.033"/>
							<rect x="383.724" y="245.044" style="fill:#E7C957;" width="5.78" height="1.033"/>
							<path style="fill:#1F1A82;" d="M382.078,236.649c0-0.285,0.231-0.517,0.517-0.517c0.285,0,0.517,0.231,0.517,0.517
								c0,0.285-0.231,0.517-0.517,0.517C382.309,237.166,382.078,236.934,382.078,236.649z"/>
						</g>
					</g>
					<g>
						<g>
							<rect x="390.538" y="252.999" style="fill:#FFFFFF;" width="9.655" height="1.033"/>
							<rect x="390.538" y="255.227" style="fill:#FFFFFF;" width="13.982" height="1.033"/>
							<rect x="390.538" y="257.455" style="fill:#FFFFFF;" width="9.655" height="1.033"/>
							<rect x="390.538" y="259.683" style="fill:#FFFFFF;" width="13.982" height="1.033"/>
						</g>
						<g>
							<rect x="383.724" y="250.771" style="fill:#3832B2;" width="14.725" height="1.033"/>
							<rect x="383.724" y="252.999" style="fill:#E7C957;" width="5.78" height="1.033"/>
							<rect x="383.724" y="255.227" style="fill:#E7C957;" width="5.78" height="1.033"/>
							<rect x="383.724" y="257.455" style="fill:#E7C957;" width="5.78" height="1.033"/>
							<rect x="383.724" y="259.683" style="fill:#E7C957;" width="5.78" height="1.033"/>
							<path style="fill:#3832B2;" d="M382.078,251.287c0-0.285,0.231-0.517,0.517-0.517c0.285,0,0.517,0.231,0.517,0.517
								c0,0.285-0.231,0.517-0.517,0.517C382.309,251.804,382.078,251.573,382.078,251.287z"/>
						</g>
					</g>
				</g>
				<g>
					<rect x="369.323" y="173.917" style="fill:#FFFFFF;" width="2.648" height="0.387"/>
					<rect x="369.323" y="174.756" style="fill:#FFFFFF;" width="2.648" height="0.387"/>
					<rect x="369.323" y="175.596" style="fill:#FFFFFF;" width="2.648" height="0.387"/>
				</g>
				<g>
					<rect x="297.315" y="173.917" style="fill:#F1D35E;" width="11.881" height="2.067"/>
					<rect x="315.484" y="173.917" style="fill:#F1D35E;" width="11.881" height="2.067"/>
					<rect x="333.654" y="173.917" style="fill:#F1D35E;" width="11.881" height="2.067"/>
					<rect x="351.823" y="173.917" style="fill:#F1D35E;" width="11.881" height="2.067"/>
				</g>
				
					<linearGradient id="SVGID_00000150796179342315264340000017860290366336126593_" gradientUnits="userSpaceOnUse" x1="284.0409" y1="207.0762" x2="329.6564" y2="207.0762">
					<stop  offset="0" style="stop-color:#FFFFFF;stop-opacity:0.2"/>
					<stop  offset="1" style="stop-color:#FFFFFF"/>
				</linearGradient>
				<path style="opacity:0.28;fill:url(#SVGID_00000150796179342315264340000017860290366336126593_);" d="M329.656,166.121H288.04
					c-2.209,0-3.999,1.79-3.999,3.999v77.911L329.656,166.121z"/>
				<g>
					<g>
						<rect x="299.816" y="250.771" style="fill:#DBDADB;" width="15.93" height="0.517"/>
						<rect x="299.816" y="252.74" style="fill:#DBDADB;" width="15.93" height="0.517"/>
						<rect x="299.816" y="254.71" style="fill:#DBDADB;" width="15.93" height="0.517"/>
						<rect x="299.816" y="256.68" style="fill:#DBDADB;" width="15.93" height="0.517"/>
						<rect x="299.816" y="258.65" style="fill:#DBDADB;" width="15.93" height="0.517"/>
						<rect x="299.816" y="260.619" style="fill:#DBDADB;" width="15.93" height="0.517"/>
					</g>
					<g>
						<rect x="324.734" y="250.771" style="fill:#DBDADB;" width="15.93" height="0.517"/>
						<rect x="324.734" y="252.74" style="fill:#DBDADB;" width="15.93" height="0.517"/>
						<rect x="324.734" y="254.71" style="fill:#DBDADB;" width="15.93" height="0.517"/>
						<rect x="324.734" y="256.68" style="fill:#DBDADB;" width="15.93" height="0.517"/>
						<rect x="324.734" y="258.65" style="fill:#DBDADB;" width="15.93" height="0.517"/>
						<rect x="324.734" y="260.619" style="fill:#DBDADB;" width="15.93" height="0.517"/>
					</g>
					<g>
						<rect x="349.653" y="250.771" style="fill:#DBDADB;" width="15.93" height="0.517"/>
						<rect x="349.653" y="252.74" style="fill:#DBDADB;" width="15.93" height="0.517"/>
						<rect x="349.653" y="254.71" style="fill:#DBDADB;" width="15.93" height="0.517"/>
						<rect x="349.653" y="256.68" style="fill:#DBDADB;" width="15.93" height="0.517"/>
						<rect x="349.653" y="258.65" style="fill:#DBDADB;" width="15.93" height="0.517"/>
						<rect x="349.653" y="260.619" style="fill:#DBDADB;" width="15.93" height="0.517"/>
					</g>
					<g>
						<g>
							<rect x="306.727" y="201.129" style="fill:#EDEEF0;" width="51.945" height="3.444"/>
							<rect x="354.362" y="201.129" style="fill:#E7C957;" width="4.31" height="3.444"/>
						</g>
						<g>
							<g>
								<path style="fill:#FFFFFF;" d="M357.531,203.641l-0.359-0.359c0.1-0.146,0.158-0.323,0.158-0.513
									c0-0.504-0.41-0.914-0.914-0.914s-0.914,0.41-0.914,0.914c0,0.504,0.41,0.914,0.914,0.914c0.208,0,0.398-0.073,0.552-0.191
									l0.355,0.355L357.531,203.641z M356.416,203.391c-0.343,0-0.621-0.279-0.621-0.621c0-0.343,0.279-0.621,0.621-0.621
									c0.343,0,0.621,0.279,0.621,0.621C357.038,203.112,356.759,203.391,356.416,203.391z"/>
							</g>
							<rect x="307.971" y="201.834" style="fill:#BEBEC0;" width="0.226" height="2.034"/>
						</g>
					</g>
					<g>
						<rect x="299.816" y="212.167" style="fill:#DBDADB;" width="29.449" height="1.033"/>
						<rect x="299.816" y="214.912" style="fill:#DBDADB;" width="29.449" height="1.033"/>
						<rect x="299.816" y="217.657" style="fill:#DBDADB;" width="29.449" height="1.033"/>
						<rect x="299.816" y="220.402" style="fill:#DBDADB;" width="29.449" height="1.033"/>
						<rect x="299.816" y="223.146" style="fill:#DBDADB;" width="29.449" height="1.033"/>
						<rect x="299.816" y="225.891" style="fill:#DBDADB;" width="29.449" height="1.033"/>
					</g>
					<g>
						<rect x="335.289" y="212.167" style="fill:#00C4FF;" width="30.294" height="14.816"/>
						<g>
							<rect x="362.263" y="223.663" style="fill:#E7C957;" width="3.321" height="3.321"/>
							<polygon style="fill:#EDEEF0;" points="364.806,225.257 363.989,225.257 363.989,224.441 363.857,224.441 363.857,225.257 
								363.04,225.257 363.04,225.389 363.857,225.389 363.857,226.206 363.989,226.206 363.989,225.389 364.806,225.389 							"/>
						</g>
					</g>
					<polygon style="fill:#FFFFFF;" points="364.806,226.542 365.643,229.022 366.309,228.357 367.163,229.211 367.474,228.9 
						366.62,228.046 367.285,227.38 					"/>
					<g>
						<circle style="fill:#E7C957;" cx="332.699" cy="241.622" r="5.489"/>
						<g>
							<path style="fill:#FFFFFF;" d="M334.956,243.773l-0.191-0.3c0.149-0.167,0.276-0.348,0.379-0.542l0.348,0.077
								c0.148,0.033,0.295-0.061,0.328-0.209l0.205-0.924c0.033-0.148-0.061-0.295-0.209-0.328l-0.348-0.077
								c-0.012-0.219-0.05-0.437-0.115-0.651l0.301-0.191c0.128-0.082,0.166-0.252,0.084-0.38l-0.508-0.799
								c-0.082-0.128-0.252-0.166-0.38-0.084l-0.301,0.191c-0.167-0.149-0.348-0.276-0.542-0.379l0.077-0.348
								c0.033-0.148-0.061-0.295-0.209-0.328l-0.924-0.205c-0.148-0.033-0.295,0.061-0.328,0.209l-0.077,0.348
								c-0.219,0.012-0.437,0.05-0.651,0.114l-0.191-0.3c-0.082-0.128-0.252-0.166-0.38-0.084l-0.799,0.508
								c-0.128,0.082-0.166,0.252-0.084,0.38l0.191,0.301c-0.149,0.166-0.276,0.348-0.379,0.541l-0.348-0.077
								c-0.148-0.033-0.295,0.061-0.328,0.209l-0.205,0.924c-0.033,0.148,0.061,0.295,0.209,0.328l0.348,0.077
								c0.012,0.219,0.05,0.437,0.115,0.651l-0.301,0.191c-0.128,0.082-0.166,0.252-0.084,0.38l0.508,0.799
								c0.082,0.128,0.252,0.166,0.38,0.084l0.301-0.191c0.166,0.149,0.348,0.276,0.541,0.379l-0.077,0.348
								c-0.033,0.148,0.061,0.295,0.209,0.328l0.924,0.205c0.148,0.033,0.295-0.061,0.328-0.209l0.077-0.348
								c0.219-0.012,0.437-0.05,0.651-0.114l0.191,0.3c0.082,0.128,0.252,0.166,0.38,0.084l0.799-0.508
								C335,244.072,335.038,243.902,334.956,243.773z M331.195,242.579c-0.529-0.831-0.284-1.933,0.547-2.462
								c0.831-0.529,1.933-0.284,2.462,0.547c0.529,0.831,0.284,1.933-0.547,2.462C332.826,243.655,331.724,243.41,331.195,242.579z
								"/>
							<path style="fill:#FFFFFF;" d="M333.331,241.22c-0.222-0.349-0.685-0.452-1.033-0.23c-0.349,0.222-0.451,0.685-0.229,1.033
								c0.222,0.349,0.685,0.451,1.033,0.229C333.45,242.031,333.553,241.568,333.331,241.22z"/>
						</g>
					</g>
					<g>
						<path style="fill:#1F1A82;" d="M302.291,241.555c0-3.032,2.458-5.489,5.489-5.489s5.489,2.458,5.489,5.489
							c0,3.032-2.458,5.489-5.489,5.489S302.291,244.587,302.291,241.555z"/>
						<g>
							<path style="fill:#FFFFFF;" d="M307.975,244.59c-0.468,0.124-0.886-0.292-0.762-0.761c0.054-0.206,0.221-0.372,0.426-0.427
								c0.468-0.124,0.885,0.292,0.762,0.761C308.347,244.369,308.181,244.535,307.975,244.59z"/>
							<g>
								<path style="fill:#FFFFFF;" d="M306.591,242.811c-0.254-0.254-0.176-0.69,0.155-0.83c0.334-0.141,0.696-0.216,1.062-0.216
									c0.329,0,0.655,0.06,0.96,0.175c0.351,0.132,0.452,0.578,0.188,0.843l-0.006,0.006c-0.142,0.142-0.353,0.188-0.54,0.116
									c-0.193-0.075-0.396-0.113-0.602-0.113c-0.223,0-0.445,0.045-0.65,0.13c-0.193,0.08-0.415,0.041-0.563-0.107
									L306.591,242.811z"/>
								<path style="fill:#FFFFFF;" d="M305.406,241.626c-0.233-0.233-0.187-0.62,0.091-0.797c0.691-0.439,1.489-0.672,2.31-0.672
									c0.803,0,1.583,0.222,2.259,0.636c0.278,0.17,0.316,0.561,0.085,0.792l-0.005,0.004c-0.164,0.164-0.42,0.201-0.618,0.08
									c-0.516-0.316-1.113-0.486-1.722-0.486c-0.629,0-1.241,0.18-1.767,0.512C305.839,241.824,305.576,241.796,305.406,241.626
									L305.406,241.626z"/>
								<path style="fill:#FFFFFF;" d="M304.213,240.433c-0.222-0.222-0.193-0.59,0.059-0.775c1.025-0.754,2.257-1.159,3.535-1.159
									c1.256,0,2.467,0.391,3.477,1.113c0.257,0.184,0.287,0.555,0.064,0.779l-0.003,0.003c-0.179,0.18-0.46,0.196-0.667,0.049
									c-0.836-0.594-1.837-0.917-2.871-0.917c-1.057,0-2.077,0.335-2.923,0.952C304.678,240.628,304.394,240.614,304.213,240.433
									L304.213,240.433z"/>
							</g>
						</g>
					</g>
					<g>
						<circle style="fill:#3832B2;" cx="357.618" cy="241.622" r="5.489"/>
						<path style="fill:#FFFFFF;" d="M357.655,238.448c-1.729,0-3.136,1.407-3.136,3.136c0,0.528,0.133,1.047,0.387,1.508
							c0,0-0.277,1.057-0.337,1.27c-0.023,0.084-0.058,0.225-0.07,0.314c-0.007,0.047,0.013,0.129,0.099,0.117
							c0.083-0.012,0.199-0.055,0.219-0.062c0.305-0.115,1.222-0.461,1.222-0.461c0.488,0.294,1.044,0.449,1.616,0.449
							c1.729,0,3.136-1.407,3.136-3.136C360.791,239.855,359.384,238.448,357.655,238.448z M356.013,242.094
							c-0.26,0-0.472-0.212-0.472-0.472c0-0.26,0.212-0.472,0.472-0.472c0.26,0,0.472,0.212,0.472,0.472
							C356.485,241.882,356.273,242.094,356.013,242.094z M357.644,242.094c-0.26,0-0.472-0.212-0.472-0.472
							c0-0.26,0.212-0.472,0.472-0.472c0.26,0,0.472,0.212,0.472,0.472C358.116,241.882,357.904,242.094,357.644,242.094z
							 M359.275,242.094c-0.26,0-0.472-0.212-0.472-0.472c0-0.26,0.212-0.472,0.472-0.472s0.472,0.212,0.472,0.472
							C359.747,241.882,359.535,242.094,359.275,242.094z"/>
					</g>
				</g>
			</g>
		</g>
		<g>
			<g>
				<path style="fill:#1313BD;" d="M250.256,439.027c-2.318,1.918-5.238,2.96-8.247,2.942l-2.425-0.014l-0.292-9.25h10.812
					c1.654,0,3.048,1.127,3.448,2.66c0.126,0.482-0.071,0.994-0.455,1.311L250.256,439.027z"/>
				<path style="fill:#1313BD;" d="M262.563,439.11c2.319,1.918,5.238,2.96,8.247,2.942l2.425-0.014l0.292-9.25h-10.812
					c-1.654,0-3.048,1.127-3.448,2.661c-0.126,0.482,0.071,0.994,0.455,1.311L262.563,439.11z"/>
			</g>
			<g>
				<rect x="77.222" y="283.237" style="fill:#FFFFFF;" width="357.786" height="7.358"/>
				<g>
					<g>
						<g>
							<path style="fill:#1313BD;" d="M241.391,442.021h-4.771c-1.635,0-2.961-1.326-2.961-2.961v-2.903h10.692v2.903
								C244.352,440.696,243.026,442.021,241.391,442.021z"/>
							<polygon style="fill:#4343E6;" points="245.959,436.388 232.781,436.388 222.352,324.933 245.959,324.933 							"/>
						</g>
						<g>
							<path style="fill:#1313BD;" d="M274.881,442.021h-4.771c-1.635,0-2.961-1.326-2.961-2.961v-2.903h10.692v2.903
								C277.842,440.696,276.516,442.021,274.881,442.021z"/>
							<polygon style="fill:#4343E6;" points="279.449,436.388 266.271,436.388 266.271,324.933 289.878,324.933 							"/>
						</g>
					</g>
					<g>
						<g>
							<rect x="244.005" y="181.757" style="fill:#FFC09D;" width="24.22" height="22.381"/>
							<g>
								<g>
									<path style="fill:#FFC09D;" d="M231.461,156.309c0-1.514-1.227-2.742-2.742-2.742l0,0c-1.671,0-2.953,1.482-2.713,3.136
										c0,0,1.131,2.559,2.15,6.244c0.533,1.925,0.369,3.929,0.04,5.898c-0.173,1.035,0.418,2.184,1.773,2.22
										C232.847,171.145,231.461,156.309,231.461,156.309z"/>
									<path style="fill:#FFC09D;" d="M280.769,156.309c0-1.514,1.228-2.742,2.742-2.742l0,0c1.671,0,2.953,1.482,2.713,3.136
										c0,0-1.131,2.559-2.15,6.244c-0.533,1.925-0.369,3.929-0.04,5.898c0.173,1.035-0.418,2.184-1.773,2.22
										C279.382,171.145,280.769,156.309,280.769,156.309z"/>
								</g>
								<path style="fill:#F1CE43;" d="M282.52,158.725c0-10.828-2.99-19.474-9.101-24.75c0.853-2.681-0.542-6.177-4.197-6.177
									c-0.178,0-0.34,0.025-0.506,0.043c-0.342-2.901-2.391-5.561-6.162-5.561c-3.834,0-5.893,2.757-6.181,5.72
									c-0.067,0.086-0.13,0.175-0.198,0.26c-0.02,0-0.039-0.001-0.06-0.001c-17.847,0-26.405,12.117-26.405,30.467
									c0,17.013,7.363,31.029,22.659,32.982c-0.007,0.695,0.436,1.394,1.331,1.394c0.258,0,0.474-0.063,0.657-0.163
									c0.323,0.507,0.869,0.852,1.528,0.852H256c0.569,0,1.119-0.3,1.468-0.748c0.118,0.034,0.24,0.058,0.371,0.058h0.115
									c0.703,0,1.371-0.603,1.375-1.322C274.989,190.088,282.52,175.936,282.52,158.725z"/>
								<path style="fill:#F1B81D;" d="M274.833,180.264c-7.793,5.692-18.672,8.123-27.083,3.857
									c-8.236-4.178-13.347-11.574-15.671-20.344c-1.205-4.548-1.598-12.617-0.736-17.607c-1.092,3.73-1.633,7.945-1.633,12.555
									c0,17.013,7.363,31.029,22.659,32.982c-0.007,0.695,0.436,1.394,1.332,1.394c0.258,0,0.474-0.063,0.657-0.163
									c0.323,0.507,0.869,0.852,1.527,0.852H256c0.569,0,1.119-0.3,1.468-0.748c0.118,0.034,0.24,0.058,0.371,0.058h0.115
									c0.703,0,1.371-0.603,1.375-1.322c9.994-1.079,16.671-7.238,20.199-16.024C278.177,177.432,276.624,178.956,274.833,180.264
									z"/>
							</g>
						</g>
						<g>
							<g>
								<g>
									<path style="fill:#FFB78F;" d="M192.921,286.951h-8.737v-4.368c0-4.825,3.912-8.737,8.737-8.737h0V286.951z"/>
									<path style="fill:#FFC09D;" d="M199.365,245.015l-14.863,40.459c-0.551,1.5-0.458,3.161,0.256,4.59l1.208,2.417
										c1.197,2.394,3.878,3.657,6.486,3.055l0,0c4.313-0.995,7.832-4.099,9.358-8.254l13.28-36.15L199.365,245.015z"/>
								</g>
								<g>
									<path style="fill:#FFB78F;" d="M319.309,286.951h8.737v-4.368c0-4.825-3.912-8.737-8.737-8.737l0,0V286.951z"/>
									<path style="fill:#FFC09D;" d="M312.865,245.015l14.862,40.459c0.551,1.5,0.458,3.161-0.256,4.59l-1.208,2.417
										c-1.197,2.394-3.878,3.657-6.486,3.055h0c-4.313-0.995-7.832-4.099-9.358-8.254l-13.28-36.15L312.865,245.015z"/>
								</g>
							</g>
							<path style="fill:#4343E6;" d="M220.284,305.081c0.152,12.736-0.934,25.754,4.163,30.429
								c11.669,10.702,51.665,10.702,63.335,0c5.098-4.675,4.011-17.692,4.163-30.429H220.284z"/>
							<path style="fill:#00C4FF;" d="M287.119,205.484c-6.456-3.377-13.677-5.025-20.963-5.025H246.1
								c-7.662,0-15.227,1.854-21.946,5.537c-10.466,5.738-23.502,17.267-30.132,40.215l25.21,10.271c0,0-5.914,49.968,5.214,60.173
								c11.669,10.702,51.665,10.702,63.335,0c11.128-10.206,5.214-60.173,5.214-60.173l25.21-10.271
								C311.374,222.558,297.736,211.037,287.119,205.484z"/>
						</g>
					</g>
				</g>
				<g>
					<path style="fill:#3333E6;" d="M311.586,342.609c-0.003-0.059-0.006-0.119-0.01-0.178c-0.422-6.69-6.569-11.532-13.232-10.792
						l-12.276,1.364c-19.908,2.212-39.999,2.212-59.907,0l-12.276-1.364c-6.663-0.74-12.809,4.101-13.232,10.792
						c-0.004,0.06-0.007,0.119-0.01,0.178c-0.158,3.288,2.547,6.009,5.839,6.009h99.265
						C309.039,348.618,311.744,345.897,311.586,342.609z"/>
					<g>
						<path style="fill:#3333E6;" d="M256.115,321.672L256.115,321.672c-21.139,0-38.666-11.252-40.104-32.342l-3.432-50.34
							c-0.007-0.105-0.014-0.21-0.019-0.315c-0.73-13.303,9.864-24.531,23.229-24.531h40.653c13.471,0,24.126,11.406,23.21,24.846
							l-3.432,50.34C294.781,310.42,277.254,321.672,256.115,321.672z"/>
						<g>
							<path style="fill:#1212B0;" d="M256.115,316.552L256.115,316.552c-32.429,0-40.104-27.222-40.104-27.222
								c1.438,21.09,18.965,32.342,40.104,32.342h0c21.139,0,38.666-11.252,40.104-32.342
								C296.219,289.33,287.691,316.552,256.115,316.552z"/>
						</g>
					</g>
					<path style="fill:#00C4FF;" d="M263.473,263.002h-14.716c-4.318,0-7.818-3.5-7.818-7.818v0c0-4.318,3.5-7.818,7.818-7.818
						h14.716c4.318,0,7.818,3.5,7.818,7.818v0C271.291,259.502,267.791,263.002,263.473,263.002z"/>
					<g>
						<path style="fill:#1313BD;" d="M256.115,368.775L256.115,368.775c-3.81,0-6.898-3.088-6.898-6.898V253.561
							c0-1.39,1.126-2.516,2.516-2.516h8.764c1.39,0,2.516,1.127,2.516,2.516v108.315
							C263.013,365.686,259.925,368.775,256.115,368.775z"/>
						<path style="fill:#1313BD;" d="M297.044,357.585h-81.859c-5.08,0-9.197-4.118-9.197-9.198l0,0h100.254l0,0
							C306.242,353.467,302.124,357.585,297.044,357.585z"/>
						<path style="fill:#1212B0;" d="M274.97,363.104h-37.71c-3.048,0-5.519-2.471-5.519-5.519l0,0h48.747l0,0
							C280.488,360.633,278.018,363.104,274.97,363.104z"/>
						<rect x="253.356" y="366.015" style="fill:#1313BD;" width="5.519" height="65.774"/>
					</g>
					<g>
						<g>
							<g>
								<path style="fill:#1313BD;" d="M225.303,437.307c0,3.048-2.471,5.519-5.519,5.519c-3.048,0-5.519-2.471-5.519-5.519
									s2.471-5.518,5.519-5.518C222.832,431.789,225.303,434.26,225.303,437.307z"/>
								<path style="fill:#3333E6;" d="M222.544,437.307c0,1.524-1.235,2.759-2.759,2.759c-1.524,0-2.759-1.235-2.759-2.759
									s1.235-2.759,2.759-2.759C221.308,434.548,222.544,435.784,222.544,437.307z"/>
							</g>
							<path style="fill:#1313BD;" d="M253.815,431.789v-7.971l-37.502,5.358c-0.647,0.092-1.128,0.647-1.128,1.3l0,0
								c0,0.725,0.588,1.314,1.313,1.314H253.815z"/>
						</g>
						<g>
							<g>
								<path style="fill:#1313BD;" d="M286.927,437.307c0,3.048,2.471,5.519,5.519,5.519c3.048,0,5.518-2.471,5.518-5.519
									s-2.471-5.518-5.518-5.518C289.398,431.789,286.927,434.26,286.927,437.307z"/>
								<circle style="fill:#3333E6;" cx="292.445" cy="437.307" r="2.759"/>
							</g>
							<path style="fill:#1313BD;" d="M258.414,431.789v-7.971l37.502,5.358c0.647,0.092,1.128,0.647,1.128,1.3l0,0
								c0,0.725-0.588,1.314-1.314,1.314H258.414z"/>
						</g>
						<polygon style="fill:#1313BD;" points="257.495,439.147 253.815,439.147 252.896,425.35 258.414,425.35 						"/>
						<path style="fill:#3333E6;" d="M255.655,449.264L255.655,449.264c-1.422,0-2.575-1.153-2.575-2.575v-7.726
							c0-1.422,1.153-2.575,2.575-2.575l0,0c1.422,0,2.575,1.153,2.575,2.575v7.726C258.23,448.111,257.077,449.264,255.655,449.264
							z"/>
					</g>
				</g>
			</g>
		</g>
	</g>
</g>
<g id="DESIGNED_BY_FREEPIK">
	<g>
		<g id="XMLID_319_">
			<g id="XMLID_338_">
				<path id="XMLID_346_" style="fill:#F9FBFC;" d="M260.104,465.465c-0.432,0.443-0.803,0.931-1.108,1.453l-0.465-0.241
					c-0.067-0.298-0.349-0.503-0.659-0.466c-0.331,0.039-0.568,0.339-0.529,0.67c0.039,0.331,0.339,0.568,0.67,0.529
					c0.066-0.008,0.127-0.026,0.184-0.052l0.451,0.234c-0.251,0.554-0.433,1.139-0.539,1.744l0.746,0.132
					c0.23-1.306,0.85-2.507,1.792-3.473L260.104,465.465z"/>
				<path id="XMLID_345_" style="fill:#F9FBFC;" d="M265.592,463.163c-0.171,0-0.341,0.006-0.51,0.017l-0.074-0.626
					c0.188-0.149,0.296-0.389,0.266-0.645c-0.046-0.393-0.402-0.674-0.795-0.628c-0.393,0.046-0.674,0.402-0.628,0.795
					c0.03,0.254,0.189,0.461,0.404,0.564l0.074,0.624c-0.714,0.116-1.403,0.332-2.06,0.646l0.327,0.684
					c0.934-0.447,1.942-0.673,2.995-0.673c0.496,0,0.993,0.053,1.475,0.158l0.161-0.741
					C266.692,463.222,266.142,463.163,265.592,463.163z"/>
				<path id="XMLID_344_" style="fill:#F9FBFC;" d="M272.194,465.711c0.331-0.04,0.566-0.341,0.526-0.672
					c-0.04-0.331-0.341-0.566-0.672-0.526c-0.309,0.038-0.535,0.304-0.53,0.609l-0.416,0.363c-0.418-0.43-0.889-0.813-1.408-1.139
					l-0.404,0.641c1.134,0.715,2.021,1.726,2.563,2.925l0.69-0.313c-0.251-0.554-0.568-1.072-0.942-1.545l0.402-0.351
					C272.065,465.716,272.129,465.719,272.194,465.711z"/>
				<path id="XMLID_343_" style="fill:#F9FBFC;" d="M265.044,473.372c-0.386,0.023-0.775,0.035-1.157,0.035
					c-0.88,0-1.733-0.061-2.478-0.179c-0.39-0.062-0.846-0.155-1.27-0.292c1.046,1.861,3.069,3.125,5.388,3.125
					c2.855,0,5.262-1.916,5.95-4.504c-0.682,0.449-1.505,0.825-2.459,1.123C267.839,473.047,266.463,473.286,265.044,473.372z"/>
				<path id="XMLID_339_" style="fill:#F9FBFC;" d="M265.592,464.68c-3.352,0-6.08,2.666-6.08,5.943
					c0,0.426,0.046,0.849,0.137,1.261c0.673,0.483,2.706,0.89,5.348,0.731c2.879-0.173,5.297-0.957,6.672-2.159
					c-0.006-0.195-0.021-0.39-0.045-0.582C271.244,466.913,268.65,464.68,265.592,464.68z M263.432,471.194
					c-1.02,0-1.85-0.83-1.85-1.85c0-1.02,0.83-1.85,1.85-1.85c1.02,0,1.85,0.83,1.85,1.85
					C265.282,470.365,264.452,471.194,263.432,471.194z M268.17,470.286c-0.75,0-1.36-0.61-1.36-1.36s0.61-1.361,1.36-1.361
					c0.75,0,1.361,0.61,1.361,1.361S268.92,470.286,268.17,470.286z"/>
			</g>
			<path id="XMLID_336_" style="fill:#F9FBFC;" d="M281.595,466.547c-0.295-0.116-0.805-0.309-1.382-0.237
				c-0.551,0.069-0.844,0.341-0.844,1.007v0.866h2.228v1.717h-2.228v5.455h-1.932v-5.455h-1.34v-1.717h1.34v-0.888
				c0-1.68,0.896-2.783,2.568-2.783c0.643,0,1.157,0.122,1.59,0.308L281.595,466.547z"/>
			<path id="XMLID_334_" style="fill:#F9FBFC;" d="M286.298,469.879c-0.177-0.03-0.358-0.046-0.526-0.046
				c-0.895,0-1.51,0.548-1.51,1.614v3.908h-1.932v-7.172h1.873v0.785c0.451-0.673,1.14-0.977,2.021-0.977
				c0.414,0,0.848,0.128,1.094,0.337L286.298,469.879z"/>
			<path id="XMLID_331_" style="fill:#F9FBFC;" d="M293.965,471.757c0,0.222-0.015,0.489-0.037,0.651h-5.085
				c0.207,1.036,0.933,1.488,1.843,1.488c0.622,0,1.295-0.252,1.813-0.688l1.133,1.243c-0.814,0.748-1.85,1.088-3.057,1.088
				c-2.198,0-3.723-1.495-3.723-3.753c0-2.258,1.48-3.797,3.627-3.797C292.544,467.99,293.958,469.522,293.965,471.757z
				 M288.851,471.091h3.175c-0.177-0.918-0.733-1.436-1.562-1.436C289.554,469.655,289.021,470.203,288.851,471.091z"/>
			<path id="XMLID_328_" style="fill:#F9FBFC;" d="M301.618,471.757c0,0.222-0.015,0.489-0.037,0.651h-5.085
				c0.207,1.036,0.932,1.488,1.843,1.488c0.622,0,1.295-0.252,1.814-0.688l1.132,1.243c-0.814,0.748-1.85,1.088-3.057,1.088
				c-2.198,0-3.723-1.495-3.723-3.753c0-2.258,1.48-3.797,3.627-3.797C300.197,467.99,301.611,469.522,301.618,471.757z
				 M296.504,471.091h3.175c-0.178-0.918-0.733-1.436-1.562-1.436C297.207,469.655,296.674,470.203,296.504,471.091z"/>
			<path id="XMLID_325_" style="fill:#F9FBFC;" d="M309.964,471.764c0,2.154-1.495,3.775-3.471,3.775
				c-0.962,0-1.643-0.378-2.109-0.933v3.708h-1.924v-10.133h1.887v0.792c0.466-0.585,1.155-0.984,2.139-0.984
				C308.469,467.99,309.964,469.61,309.964,471.764z M304.287,471.764c0,1.132,0.747,1.976,1.843,1.976
				c1.14,0,1.85-0.881,1.85-1.976c0-1.095-0.711-1.976-1.85-1.976C305.035,469.788,304.287,470.632,304.287,471.764z"/>
			<path id="XMLID_322_" style="fill:#F9FBFC;" d="M313.067,465.836c0,0.696-0.54,1.229-1.236,1.229
				c-0.696,0-1.229-0.533-1.229-1.229c0-0.696,0.533-1.243,1.229-1.243C312.527,464.592,313.067,465.14,313.067,465.836z
				 M312.809,475.354h-1.932v-7.172h1.932V475.354z"/>
			<path id="XMLID_320_" style="fill:#F9FBFC;" d="M316.032,470.736l2.702-2.554h2.368l-3.479,3.375l3.501,3.797h-2.376
				l-2.716-2.901v2.901H314.1v-10.658h1.932V470.736z"/>
		</g>
		<g>
			<path style="fill:#F9FBFC;" d="M184.412,475.289v-1.055c-0.527,0.718-1.391,1.23-2.387,1.23c-1.846,0-3.149-1.406-3.149-3.706
				c0-2.256,1.289-3.721,3.149-3.721c0.952,0,1.816,0.469,2.387,1.245v-3.765h1.099v9.77H184.412z M184.412,473.37v-3.208
				c-0.395-0.615-1.245-1.143-2.124-1.143c-1.421,0-2.27,1.172-2.27,2.739c0,1.567,0.85,2.724,2.27,2.724
				C183.168,474.483,184.017,473.986,184.412,473.37z"/>
			<path style="fill:#F9FBFC;" d="M186.932,471.744c0-2.051,1.465-3.706,3.486-3.706c2.139,0,3.398,1.67,3.398,3.794v0.279h-5.727
				c0.088,1.333,1.025,2.446,2.549,2.446c0.805,0,1.626-0.322,2.182-0.894l0.527,0.718c-0.703,0.703-1.655,1.084-2.812,1.084
				C188.44,475.465,186.932,473.956,186.932,471.744z M190.403,468.947c-1.509,0-2.256,1.274-2.314,2.358h4.643
				C192.718,470.25,192.015,468.947,190.403,468.947z"/>
			<path style="fill:#F9FBFC;" d="M194.607,474.351l0.571-0.791c0.469,0.542,1.362,1.011,2.329,1.011c1.084,0,1.67-0.513,1.67-1.216
				c0-1.714-4.38-0.659-4.38-3.281c0-1.098,0.952-2.036,2.636-2.036c1.201,0,2.051,0.454,2.622,1.026l-0.513,0.762
				c-0.424-0.513-1.201-0.894-2.109-0.894c-0.967,0-1.567,0.483-1.567,1.113c0,1.552,4.38,0.527,4.38,3.281
				c0,1.187-0.952,2.138-2.783,2.138C196.306,475.465,195.325,475.113,194.607,474.351z"/>
			<path style="fill:#F9FBFC;" d="M201.477,466.471c0-0.41,0.337-0.747,0.732-0.747c0.41,0,0.747,0.337,0.747,0.747
				c0,0.41-0.337,0.732-0.747,0.732C201.814,467.203,201.477,466.881,201.477,466.471z M201.667,475.289v-7.075h1.099v7.075H201.667
				z"/>
			<path style="fill:#F9FBFC;" d="M204.582,477.105l0.556-0.82c0.586,0.703,1.289,0.967,2.3,0.967c1.172,0,2.27-0.571,2.27-2.124
				v-1.011c-0.513,0.718-1.377,1.26-2.373,1.26c-1.845,0-3.149-1.377-3.149-3.662c0-2.27,1.289-3.677,3.149-3.677
				c0.952,0,1.802,0.469,2.373,1.245v-1.069h1.098v6.87c0,2.344-1.641,3.076-3.369,3.076
				C206.237,478.16,205.417,477.926,204.582,477.105z M209.709,473.253v-3.091c-0.381-0.615-1.23-1.143-2.109-1.143
				c-1.421,0-2.27,1.128-2.27,2.695c0,1.553,0.849,2.695,2.27,2.695C208.478,474.41,209.328,473.868,209.709,473.253z"/>
			<path style="fill:#F9FBFC;" d="M217.413,475.289v-4.629c0-1.245-0.63-1.641-1.582-1.641c-0.865,0-1.685,0.527-2.095,1.099v5.17
				h-1.099v-7.075h1.099v1.025c0.498-0.586,1.465-1.201,2.519-1.201c1.48,0,2.256,0.747,2.256,2.285v4.966H217.413z"/>
			<path style="fill:#F9FBFC;" d="M219.932,471.744c0-2.051,1.465-3.706,3.486-3.706c2.139,0,3.398,1.67,3.398,3.794v0.279h-5.727
				c0.088,1.333,1.025,2.446,2.549,2.446c0.806,0,1.626-0.322,2.183-0.894l0.527,0.718c-0.703,0.703-1.655,1.084-2.812,1.084
				C221.441,475.465,219.932,473.956,219.932,471.744z M223.404,468.947c-1.509,0-2.256,1.274-2.314,2.358h4.643
				C225.718,470.25,225.015,468.947,223.404,468.947z"/>
			<path style="fill:#F9FBFC;" d="M233.35,475.289v-1.055c-0.527,0.718-1.392,1.23-2.388,1.23c-1.846,0-3.149-1.406-3.149-3.706
				c0-2.256,1.289-3.721,3.149-3.721c0.952,0,1.817,0.469,2.388,1.245v-3.765h1.098v9.77H233.35z M233.35,473.37v-3.208
				c-0.396-0.615-1.245-1.143-2.124-1.143c-1.421,0-2.27,1.172-2.27,2.739c0,1.567,0.849,2.724,2.27,2.724
				C232.105,474.483,232.954,473.986,233.35,473.37z"/>
			<path style="fill:#F9FBFC;" d="M239.692,475.289v-9.77h1.098v3.765c0.572-0.776,1.421-1.245,2.388-1.245
				c1.845,0,3.149,1.465,3.149,3.721c0,2.299-1.304,3.706-3.149,3.706c-0.996,0-1.86-0.513-2.388-1.23v1.055H239.692z
				 M242.9,474.483c1.436,0,2.285-1.157,2.285-2.724c0-1.568-0.85-2.739-2.285-2.739c-0.864,0-1.728,0.527-2.109,1.143v3.208
				C241.171,473.986,242.036,474.483,242.9,474.483z"/>
			<path style="fill:#F9FBFC;" d="M247.528,477.061c0.161,0.073,0.425,0.117,0.601,0.117c0.483,0,0.805-0.161,1.055-0.747
				l0.469-1.069l-2.959-7.148h1.187l2.358,5.8l2.344-5.8h1.201l-3.545,8.51c-0.425,1.025-1.143,1.421-2.08,1.435
				c-0.234,0-0.601-0.044-0.806-0.103L247.528,477.061z"/>
		</g>
	</g>
</g>
</svg>
